<svg xmlns="http://www.w3.org/2000/svg" width="127.35000000000002" height="35" viewBox="0 0 127.35000000000002 35"><rect class="svg__rect" x="0" y="0" width="46.21" height="35" fill="#E63753"/><rect class="svg__rect" x="44.21" y="0" width="83.14000000000001" height="35" fill="#2D2D2D"/><path class="svg__text" d="M13.97 18.13L13.97 18.13L13.97 17.46Q13.97 15.53 14.90 14.44Q15.82 13.35 17.48 13.35L17.48 13.35Q18.90 13.35 19.74 14.05Q20.58 14.76 20.75 16.08L20.75 16.08L19.30 16.08Q19.05 14.54 17.51 14.54L17.51 14.54Q16.51 14.54 16.00 15.26Q15.48 15.98 15.46 17.37L15.46 17.37L15.46 18.02Q15.46 19.40 16.04 20.17Q16.63 20.93 17.66 20.93L17.66 20.93Q18.80 20.93 19.28 20.42L19.28 20.42L19.28 18.75L17.52 18.75L17.52 17.62L20.76 17.62L20.76 20.89Q20.29 21.50 19.47 21.81Q18.65 22.12 17.61 22.12L17.61 22.12Q16.54 22.12 15.71 21.63Q14.89 21.14 14.44 20.24Q13.99 19.33 13.97 18.13ZM25.10 18.00L25.10 18.00L25.10 17.52Q25.10 16.28 25.55 15.32Q25.99 14.37 26.79 13.86Q27.60 13.35 28.64 13.35Q29.69 13.35 30.49 13.85Q31.30 14.35 31.74 15.29Q32.18 16.23 32.18 17.48L32.18 17.48L32.18 17.96Q32.18 19.21 31.75 20.16Q31.31 21.10 30.51 21.61Q29.70 22.12 28.65 22.12L28.65 22.12Q27.62 22.12 26.81 21.61Q25.99 21.10 25.55 20.17Q25.11 19.23 25.10 18.00ZM26.59 17.46L26.59 17.96Q26.59 19.36 27.13 20.13Q27.68 20.90 28.65 20.90L28.65 20.90Q29.64 20.90 30.17 20.15Q30.70 19.40 30.70 17.96L30.70 17.96L30.70 17.51Q30.70 16.09 30.16 15.34Q29.63 14.58 28.64 14.58L28.64 14.58Q27.68 14.58 27.14 15.33Q26.60 16.09 26.59 17.46L26.59 17.46Z" fill="#FFFFFF"/><path class="svg__text" d="M60.78 22L58.40 22L58.40 13.60L60.78 13.60L60.78 16.76L64.02 16.76L64.02 13.60L66.39 13.60L66.39 22L64.02 22L64.02 18.72L60.78 18.72L60.78 22ZM71.12 17.80L71.12 17.80Q71.12 16.55 71.73 15.55Q72.33 14.56 73.39 14.00Q74.46 13.43 75.79 13.43L75.79 13.43Q77.12 13.43 78.18 14.00Q79.25 14.56 79.85 15.55Q80.46 16.55 80.46 17.80L80.46 17.80Q80.46 19.05 79.85 20.04Q79.25 21.04 78.19 21.60Q77.12 22.17 75.79 22.17L75.79 22.17Q74.46 22.17 73.39 21.60Q72.33 21.04 71.73 20.04Q71.12 19.05 71.12 17.80ZM73.52 17.80L73.52 17.80Q73.52 18.51 73.82 19.05Q74.12 19.60 74.64 19.90Q75.16 20.20 75.79 20.20L75.79 20.20Q76.43 20.20 76.94 19.90Q77.46 19.60 77.76 19.05Q78.06 18.51 78.06 17.80L78.06 17.80Q78.06 17.09 77.76 16.54Q77.46 16 76.94 15.70Q76.43 15.40 75.79 15.40L75.79 15.40Q75.15 15.40 74.64 15.70Q74.12 16 73.82 16.54Q73.52 17.09 73.52 17.80ZM87.57 22L85.19 22L85.19 13.60L89.03 13.60Q90.17 13.60 91.01 13.98Q91.85 14.35 92.31 15.06Q92.76 15.76 92.76 16.71L92.76 16.71Q92.76 17.62 92.34 18.30Q91.91 18.98 91.12 19.36L91.12 19.36L92.93 22L90.38 22L88.86 19.77L87.57 19.77L87.57 22ZM87.57 15.47L87.57 17.93L88.88 17.93Q89.62 17.93 89.99 17.61Q90.36 17.29 90.36 16.71L90.36 16.71Q90.36 16.12 89.99 15.79Q89.62 15.47 88.88 15.47L88.88 15.47L87.57 15.47ZM96.96 21.24L96.96 21.24L97.74 19.49Q98.31 19.86 99.05 20.09Q99.79 20.32 100.52 20.32L100.52 20.32Q101.88 20.32 101.89 19.64L101.89 19.64Q101.89 19.28 101.50 19.11Q101.11 18.93 100.24 18.74L100.24 18.74Q99.29 18.53 98.65 18.30Q98.02 18.06 97.56 17.55Q97.11 17.03 97.11 16.16L97.11 16.16Q97.11 15.39 97.53 14.77Q97.95 14.15 98.78 13.79Q99.62 13.43 100.83 13.43L100.83 13.43Q101.65 13.43 102.46 13.62Q103.26 13.80 103.88 14.17L103.88 14.17L103.15 15.93Q101.94 15.28 100.81 15.28L100.81 15.28Q100.10 15.28 99.78 15.49Q99.46 15.70 99.46 16.04L99.46 16.04Q99.46 16.37 99.84 16.54Q100.23 16.71 101.08 16.89L101.08 16.89Q102.04 17.10 102.67 17.33Q103.30 17.56 103.76 18.07Q104.22 18.58 104.22 19.46L104.22 19.46Q104.22 20.21 103.81 20.83Q103.39 21.44 102.55 21.80Q101.70 22.17 100.50 22.17L100.50 22.17Q99.48 22.17 98.52 21.92Q97.56 21.67 96.96 21.24ZM115.54 22L108.80 22L108.80 13.60L115.39 13.60L115.39 15.44L111.16 15.44L111.16 16.85L114.89 16.85L114.89 18.63L111.16 18.63L111.16 20.17L115.54 20.17L115.54 22Z" fill="#FFFFFF" x="57.21"/></svg>